<?xml version="1.0" encoding="UTF-8"?>
<svg width="82px" height="82px" viewBox="0 0 82 82" version="1.1" xmlns="http://www.w3.org/2000/svg" xmlns:xlink="http://www.w3.org/1999/xlink">
    <!-- Generator: Sketch 54.1 (76490) - https://sketchapp.com -->
    <title>icon DIGITEERS</title>
    <desc>Created with Sketch.</desc>
    <g id="Page-1" stroke="none" stroke-width="1" fill="none" fill-rule="evenodd">
        <g id="Desktop" transform="translate(-898.000000, -1067.000000)" fill="#6A6BA3">
            <g id="section2" transform="translate(0.000000, 650.000000)">
                <g id="DIGITEERS" transform="translate(760.000000, 416.947000)">
                    <path d="M192.752397,24.747033 C192.752397,24.747033 193.369289,26.0678049 194.724042,25.9995505 C194.724042,25.9995505 192.981285,27.8974279 191.040258,25.8854538 C191.040258,25.8854538 190.268265,25.1728584 189.26387,25.4265199 L187.160213,25.9766293 C187.56679,26.3866646 193.271911,30.5430466 193.271911,30.5430466 C193.271911,30.5430466 193.558523,30.5099382 193.880772,30.525219 C195.851414,30.5420279 197.637841,31.8969269 198.136273,33.927238 C198.72606,36.334476 197.281961,38.7712568 194.910264,39.3702648 C193.453616,39.7385325 191.988937,39.34225 190.936355,38.4141951 L185.205132,38.4141951 C184.247419,39.0911352 182.969965,39.4945488 181.329103,39.4273132 L179.349928,39.4385191 L179.488967,39.5383538 L179.349928,39.5057547 C180.356331,43.8735214 181.362231,48.2417974 182.368633,52.6095641 C182.965448,55.2011905 183.250553,58.1060737 184.133979,60.5897157 C185.460121,64.3212911 187.33991,66.8146109 186.067476,71.053 C184.594765,69.212171 183.081899,67.3356868 181.091682,66.0948845 C178.233098,64.3126319 174.729512,64.0411428 171.376511,63.9413081 C164.082227,63.7248299 159.495943,56.1862938 159.368449,55.7156447 C158.48151,52.4419845 155.989848,54.1646418 155.989848,54.1646418 C154.028744,56.0783094 151,55.4701329 151,55.4701329 C154.045308,53.8946807 153.802868,50.4778902 153.802868,50.4778902 C153.848043,46.5435894 156.267927,45.0694999 157.513757,44.5703266 C152.779902,43.7242787 151.272055,47.4151052 151.272055,47.4151052 C150.642614,44.4058032 153.430926,42.8660062 153.430926,42.8660062 C156.546507,40.6008799 157.866626,38.0922792 158.462436,36.3731874 L158.958861,34.4208084 C157.072547,37.6649257 152.995237,37.7657791 152.995237,37.7657791 C156.022475,36.9059785 156.773387,32.0512632 156.773387,32.0512632 C157.915816,25.5187142 162.981459,20.9808211 170.907693,20.8565371 C170.792245,16.2952135 175.399109,15.9182867 175.399109,15.9182867 C173.411903,17.3770953 173.89076,19.175138 173.89076,19.175138 C174.413286,21.92161 177.087154,21.7927418 177.087154,21.7927418 C175.103462,20.0003021 176.053647,17.7260072 176.053647,17.7260072 C176.730772,15.7415386 179.254057,15.526079 179.254057,15.526079 C177.032944,16.466868 177.681961,18.1329863 177.681961,18.1329863 C178.353063,19.717607 180.409537,19.0539102 180.409537,19.0539102 L183.226962,18.3423335 C185.353206,17.8054675 185.848125,19.6804236 185.848125,19.6804236 L186.134235,20.8483874 C195.797705,11.3457571 200,10.053 200,10.053 C196.466298,15.2785298 195.163747,17.2349837 190.51472,22.4671352 C191.239029,22.6790292 192.102377,23.2647938 192.752397,24.747033 M179,0.053 C156.356752,0.053 138,18.408858 138,41.0527484 C138,63.6961355 156.356752,82.053 179,82.053 C201.643248,82.053 220,63.6961355 220,41.0527484 C220,18.408858 201.643248,0.053 179,0.053" id="icon-DIGITEERS"></path>
                </g>
            </g>
        </g>
    </g>
</svg>