<?xml version="1.0" encoding="UTF-8"?>
<svg width="249px" height="80px" viewBox="0 0 249 80" version="1.1" xmlns="http://www.w3.org/2000/svg" xmlns:xlink="http://www.w3.org/1999/xlink">
    <!-- Generator: Sketch 54.1 (76490) - https://sketchapp.com -->
    <title>icon UNICAPTAINS</title>
    <desc>Created with Sketch.</desc>
    <defs>
        <polygon id="path-1" points="0 0.2797 95.8895505 0.2797 95.8895505 25.6317 0 25.6317"></polygon>
        <polygon id="path-3" points="0.3589 0.2797 96.7502872 0.2797 96.7502872 25.6317 0.3589 25.6317"></polygon>
        <polygon id="path-5" points="0.16635 0.0261595092 81.64035 0.0261595092 81.64035 80 0.16635 80"></polygon>
    </defs>
    <g id="Page-1" stroke="none" stroke-width="1" fill="none" fill-rule="evenodd">
        <g id="Desktop" transform="translate(-216.000000, -1072.000000)">
            <g id="section2" transform="translate(0.000000, 650.000000)">
                <g id="UNICAPTAINS" transform="translate(159.000000, 421.947000)">
                    <g id="icon-UNICAPTAINS" transform="translate(57.000000, 0.000000)">
                        <g id="Group-3" transform="translate(0.000000, 10.053000)">
                            <mask id="mask-2" fill="white">
                                <use xlink:href="#path-1"></use>
                            </mask>
                            <g id="Clip-2"></g>
                            <path d="M83.6950763,25.6317 L20.1331794,25.6317 C9.40988041,25.6317 -9.89690722e-05,13.8682 -9.89690722e-05,6.7577 C-9.89690722e-05,4.8462 0.637756701,3.2262 1.84468454,2.0732 C3.09070515,0.8832 4.82761237,0.2797 7.00641649,0.2797 L93.4153237,0.2797 C94.7815918,0.2797 95.8895505,1.3992 95.8895505,2.7797 C95.8895505,4.1607 94.7815918,5.2797 93.4153237,5.2797 L7.00641649,5.2797 C6.17062268,5.2797 5.5283134,5.4357 5.24427216,5.7067 C4.99981856,5.9407 4.94835464,6.4072 4.94835464,6.7577 C4.94835464,11.0917 12.2898804,20.6317 20.1331794,20.6317 L83.6950763,20.6317 C85.0618392,20.6317 86.1693031,21.7512 86.1693031,23.1317 C86.1693031,24.5122 85.0618392,25.6317 83.6950763,25.6317" id="Fill-1" fill="#6A6BA3" mask="url(#mask-2)"></path>
                        </g>
                        <path d="M86.5036455,56.053 L46.3133361,56.053 C35.4941355,56.053 26,44.4528304 26,37.4410562 C26,35.5560964 26.6435602,33.9585893 27.8617812,32.8215981 C29.1184461,31.6481207 30.870887,31.053 33.069676,31.053 L84.1675569,31.053 C85.5465431,31.053 86.6639114,32.1569563 86.6639114,33.5182887 C86.6639114,34.8801142 85.5465431,35.9835775 84.1675569,35.9835775 L33.069676,35.9835775 C32.2259082,35.9835775 31.5778546,36.1369184 31.2912731,36.4046488 C31.0446332,36.6353998 30.9927091,37.0954227 30.9927091,37.4410562 C30.9927091,41.7148807 38.3998922,51.1224225 46.3133361,51.1224225 L86.5036455,51.1224225 C87.8826317,51.1224225 89,52.2263788 89,53.5877113 C89,54.9490437 87.8826317,56.053 86.5036455,56.053" id="Fill-4" fill="#6A6BA3"></path>
                        <path d="M101.507943,76.053 L68.2778643,76.053 C57.4772911,76.053 48,64.4528304 48,57.4410562 C48,55.5560964 48.6424522,53.9585893 49.8580774,52.8215981 C51.1130771,51.6481207 52.8620024,51.053 55.0570058,51.053 L85.6813906,51.053 C87.0580026,51.053 88.1734471,52.1569563 88.1734471,53.5182887 C88.1734471,54.8801142 87.0580026,55.9835775 85.6813906,55.9835775 L55.0570058,55.9835775 C54.2146907,55.9835775 53.5677528,56.1369184 53.2816647,56.4046488 C53.0354495,56.6353998 52.9841131,57.0954227 52.9841131,57.4410562 C52.9841131,61.7148807 60.3785434,71.1224225 68.2778643,71.1224225 L101.507943,71.1224225 C102.884555,71.1224225 104,72.2263788 104,73.5877113 C104,74.9490437 102.884555,76.053 101.507943,76.053" id="Fill-6" fill="#6A6BA3"></path>
                        <g id="Group-10" transform="translate(152.000000, 10.053000)">
                            <mask id="mask-4" fill="white">
                                <use xlink:href="#path-3"></use>
                            </mask>
                            <g id="Clip-9"></g>
                            <path d="M76.511859,25.6317 L12.6167154,25.6317 C11.2427974,25.6317 10.1295359,24.5122 10.1295359,23.1317 C10.1295359,21.7512 11.2427974,20.6317 12.6167154,20.6317 L76.511859,20.6317 C84.3962179,20.6317 91.7761769,11.0917 91.7761769,6.7577 C91.7761769,6.4072 91.7244436,5.9407 91.4787103,5.7067 C91.1931821,5.4357 90.5475103,5.2797 89.7068436,5.2797 L2.84607949,5.2797 C1.47216154,5.2797 0.3589,4.1607 0.3589,2.7797 C0.3589,1.3992 1.47216154,0.2797 2.84607949,0.2797 L89.7068436,0.2797 C91.8975513,0.2797 93.6430538,0.8832 94.8960949,2.0732 C96.1088436,3.2262 96.7505359,4.8462 96.7505359,6.7577 C96.7505359,13.8682 87.2912949,25.6317 76.511859,25.6317" id="Fill-8" fill="#6A6BA3" mask="url(#mask-4)"></path>
                        </g>
                        <path d="M202.589627,56.053 L162.508341,56.053 C161.122734,56.053 160,54.9490437 160,53.5877113 C160,52.2263788 161.122734,51.1224225 162.508341,51.1224225 L202.589627,51.1224225 C210.541069,51.1224225 217.983318,41.7148807 217.983318,37.4410562 C217.983318,37.0954227 217.931144,36.6353998 217.68332,36.4046488 C217.395362,36.1374115 216.744197,35.9835775 215.896378,35.9835775 L164.553643,35.9835775 C163.168035,35.9835775 162.045301,34.8801142 162.045301,33.5182887 C162.045301,32.1569563 163.168035,31.053 164.553643,31.053 L215.896378,31.053 C218.105725,31.053 219.866078,31.6481207 221.129781,32.8215981 C222.35335,33.9585893 223,35.5560964 223,37.4410562 C223,44.4528304 213.460778,56.053 202.589627,56.053" id="Fill-11" fill="#6A6BA3"></path>
                        <path d="M179.721818,76.053 L146.492034,76.053 C145.115435,76.053 144,74.9490437 144,73.5877113 C144,72.2263788 145.115435,71.1224225 146.492034,71.1224225 L179.721818,71.1224225 C187.621567,71.1224225 195.015931,61.7148807 195.015931,57.4410562 C195.015931,57.0954227 194.964097,56.6353998 194.717884,56.4046488 C194.431798,56.1369184 193.784866,55.9835775 192.942559,55.9835775 L162.499368,55.9835775 C161.123267,55.9835775 160.007334,54.8801142 160.007334,53.5182887 C160.007334,52.1569563 161.123267,51.053 162.499368,51.053 L192.942559,51.053 C195.137542,51.053 196.886452,51.6481207 198.141441,52.8215981 C199.357055,53.9585893 200,55.5560964 200,57.4410562 C200,64.4528304 190.522295,76.053 179.721818,76.053" id="Fill-13" fill="#6A6BA3"></path>
                        <g id="Group-17" transform="translate(84.000000, 0.053000)">
                            <mask id="mask-6" fill="white">
                                <use xlink:href="#path-5"></use>
                            </mask>
                            <g id="Clip-16"></g>
                            <path d="M55.11035,24.2926626 C55.11035,24.2926626 55.72485,25.5653006 57.07485,25.4995337 C57.07485,25.4995337 55.33835,27.3282454 53.40485,25.3895951 C53.40485,25.3895951 52.63585,24.7029693 51.63535,24.9473865 L49.53985,25.4774479 C49.94485,25.8725399 55.62785,29.8774479 55.62785,29.8774479 C55.62785,29.8774479 55.91335,29.845546 56.23435,29.8602699 C58.19685,29.8764663 59.97685,31.1819877 60.47335,33.1383067 C61.06085,35.457816 59.62235,37.8057914 57.25985,38.3829693 C55.80885,38.737816 54.34985,38.3559755 53.30135,37.4617423 L47.59235,37.4617423 C46.63835,38.1140123 45.36585,38.5027239 43.73135,38.4379387 L41.75985,38.4487362 L41.89835,38.5449325 L41.75985,38.5135215 C42.76235,42.7221104 43.76435,46.9311902 44.76685,51.1397791 C45.36135,53.6369571 45.64585,56.4359755 46.52485,58.8291043 C47.84635,62.4246871 49.71885,64.8271411 48.45135,68.9110675 C46.98435,67.1373252 45.47735,65.329227 43.49485,64.1336442 C40.64735,62.4163436 37.15735,62.1547485 33.81735,62.0585521 C26.55135,61.8499632 21.98285,54.5861595 21.85585,54.1326626 C20.97235,50.9783067 18.49035,52.638184 18.49035,52.638184 C16.53685,54.4821104 13.51985,53.8960982 13.51985,53.8960982 C16.55335,52.3780613 16.31185,49.0857914 16.31185,49.0857914 C16.35685,45.2948712 18.76735,43.8745031 20.00835,43.3935215 C15.29285,42.5783067 13.79085,46.1346258 13.79085,46.1346258 C13.16385,43.2349939 15.94135,41.7513129 15.94135,41.7513129 C19.04485,39.5687362 20.35985,37.1515583 20.95335,35.4951166 L21.44785,33.6138896 C19.56885,36.7397791 15.50735,36.8369571 15.50735,36.8369571 C18.52285,36.0084908 19.27085,31.3306994 19.27085,31.3306994 C20.40885,25.0362209 25.45485,20.6637055 33.35085,20.5439509 C33.23535,16.1488589 37.82435,15.7856687 37.82435,15.7856687 C35.84535,17.1913129 36.32185,18.9238282 36.32185,18.9238282 C36.84235,21.5702086 39.50585,21.4460368 39.50585,21.4460368 C37.52985,19.7189202 38.47635,17.5275092 38.47635,17.5275092 C39.15085,15.615362 41.66435,15.4077546 41.66435,15.4077546 C39.45185,16.3142577 40.09835,17.9196564 40.09835,17.9196564 C40.76685,19.4465276 42.81535,18.8070184 42.81535,18.8070184 L45.62235,18.1213742 C47.73985,17.6040736 48.23285,19.4106994 48.23285,19.4106994 L48.51785,20.5360982 C58.14385,11.3797791 62.32985,10.134135 62.32985,10.134135 C58.80985,15.169227 57.51235,17.0543804 52.88135,22.0958528 C53.60285,22.3000245 54.46285,22.8644417 55.11035,24.2926626 M40.90335,0.0261595092 C18.40485,0.0261595092 0.16635,17.9284908 0.16635,40.012908 C0.16635,62.0968344 18.40485,80.0001472 40.90335,80.0001472 C63.40185,80.0001472 81.64035,62.0968344 81.64035,40.012908 C81.64035,17.9284908 63.40185,0.0261595092 40.90335,0.0261595092" id="Fill-15" fill="#6A6BA3" mask="url(#mask-6)"></path>
                        </g>
                    </g>
                </g>
            </g>
        </g>
    </g>
</svg>